<?xml version="1.0" encoding="UTF-8"?>
<svg width="50pt" height="50pt" version="1.1" viewBox="0 0 700 700" xmlns="http://www.w3.org/2000/svg" xmlns:xlink="http://www.w3.org/1999/xlink">
 <g>
  <path d="m240.96 167.85c-22.828-35.672 5.0234-85.418 47.617-84.57 4.8281 0 8.75 3.9102 8.75 8.75s-3.9219 8.75-8.75 8.75c-21.086 0-38.246 17.148-38.246 38.238 0 21.086 17.148 38.238 38.246 38.238 4.8281 0 8.75 3.9102 8.75 8.75-1.9766 18.918-36.898 3.1484-44.355-4.1484-28.184 8.9414-17.219 39.777 8.75 37.625 13.824 0.14062 11.531 19.477-2.1172 17.578-40.957 0.55859-57.41-50.164-18.645-69.223zm-8.7656 111.5c4.8281 0 8.75-3.9102 8.75-8.75 0-4.8398-3.9219-8.75-8.75-8.75-18.805 0-35.43 10.176-45.527 25.68-7.9023-3.0469-13.598-12.109-13.598-22.934 0-13.309 8.7148-24.148 19.426-24.148 4.8281 0 8.75-3.9102 8.75-8.75 0-4.8398-3.9219-8.75-8.75-8.75-41.395 0.48047-50.348 64.766-13.195 80.367-12.363 36.777 15.227 80.359 52.895 79.406 11.496-0.20312 11.508-17.297 0-17.5-50.516-1.7148-50.488-84.184 0-85.883zm19.441 75.836c0 25.551 18.68 46.34 41.641 46.34 11.508-0.21094 11.508-17.297 0-17.5-31.887-1.1211-31.859-56.578 0-57.688 11.488-0.17578 11.508-17.316 0-17.5-22.961 0-41.641 20.789-41.641 46.348zm291.68 70.762c3.2383 3.1055 3.5859 8.1719 0.82422 11.699-18 22.996-39.254 42.629-63.168 58.371-3.4141 2.2734-7.9375 1.8477-10.887-1.0078l-39.543-38.125c-18.227 10.062-37.703 17.309-58.039 21.57v52.762c0 4.3477-3.2031 8.043-7.5078 8.6641-33.809 5.8359-78.398 2.25-104.95-17.219-30.414 6.957-60.523-19.137-56.867-49.918-40.59-1.8281-75.477-45.703-66.184-85.461-24.273-11.199-34.047-43.941-18.812-66.238-25.82-26.066-21.078-68.504 8.8984-89.969-26.129-44.828 15.375-132.73 66.473-137.98-1.4609-32.715 34.66-56.805 64.898-43.996 20.992-30.406 69.766-35.805 106.55-28.973 4.3047 0.62109 7.5078 4.3125 7.5078 8.6641v52.762c20.336 4.2617 39.805 11.496 58.039 21.57l39.543-38.125c2.9414-2.8438 7.4648-3.2812 10.887-1.0078 23.914 15.742 45.168 35.375 63.168 58.371 2.7656 3.5273 2.4141 8.582-0.82422 11.699l-38.648 37.188c12.949 19.672 22.129 41.055 27.359 63.762h55.223c4.332 0 8.0156 3.168 8.6523 7.4531 4.2266 27.895 3.6914 57.164-1.5664 84.508-0.78906 4.1211-4.3906 7.1055-8.5938 7.1055h-56.035c-5.4531 19.301-13.852 37.652-25.051 54.695l38.648 37.188zm-208.4-19.758c163.61-14.613 163.73-237.7 0-252.38v45.953c11.664 0.097657 59.254 15.27 47.32 31.465-1.7344 2.0742-4.2188 3.1406-6.7188 3.1406-1.9766 0-3.9727-0.66406-5.6094-2.0312-9.8945-8.2695-22.102-13.406-35-14.945v125.21c32.461-3.8594 57.68-30.441 57.68-62.613 0-4.8398 3.9219-8.75 8.75-8.75s8.75 3.9102 8.75 8.75c0 41.816-33.047 76.281-75.18 80.246v45.938zm-17.5 118.13v-19.879c-42.184-4.3906-75.188-40.152-75.188-83.477 0-4.8398 3.9219-8.75 8.75-8.75s8.75 3.9102 8.75 8.75c0 33.66 25.184 61.484 57.688 65.793v-450.85c-21.848 3.0781-40.188 13.809-48.09 28.648-1.1367 2.1445-3.1133 3.7188-5.4609 4.3398-2.3281 0.62109-4.8398 0.25391-6.8945-1.0234-4.9102-3.0703-10.527-4.6797-16.23-4.6797-16.371 0-29.688 12.941-29.688 28.84-0.28125 5.1992 3.4141 11.129-0.85938 15.547-1.9414 2.2031-4.875 3.2969-7.7695 2.8867-19.652-2.5547-44.18 17.781-57.129 47.637-11.777 26.906-11.496 55.547 0.66406 69.648 3.5859 3.9648 2.4141 10.781-2.2852 13.316-28.867 15.688-33.695 51.992-8.0781 72.301 1.8828 1.5469 3.0273 3.8164 3.168 6.2383 0.14062 2.4336-0.73438 4.8125-2.4141 6.5703-15.262 15.043-7.1758 42.121 13.512 47.355 4.7422 1.2266 7.6211 6.6836 5.9141 11.289-13.012 34.328 21.621 75.145 57.617 70.387 6.3008-0.73438 11.438 6.0039 9.0039 11.855-8.7227 21.938 12.637 45.297 36.977 37.711 2.6758-0.80469 5.6172-0.26953 7.8477 1.4531 12.539 9.6602 30.477 16.074 50.191 18.086zm207.99-91.332-38.203-36.758c-3.125-3.0117-3.5781-7.8398-1.0664-11.375 13.422-18.883 22.961-39.621 28.332-61.625 0.95312-3.9102 4.4727-6.6758 8.5039-6.6758h55.422c3.2969-20.867 3.7266-42.824 1.1992-64.059h-54.66c-4.1914 0-7.8047-2.9844-8.5938-7.1055-4.8633-25.324-15.023-48.957-30.203-70.254-2.5195-3.5273-2.0664-8.375 1.0586-11.383l38.203-36.758c-14.219-17.047-30.406-31.965-48.281-44.484l-39.156 37.746c-2.8438 2.7305-7.1562 3.2383-10.543 1.2266-20.168-11.98-42.098-20.09-65.16-24.09-4.1914-0.72656-7.2539-4.3672-7.2539-8.6172l-0.003906-52.277c-6.5117-0.71875-13.258-1.0859-20.09-1.2969v101.11c186.91 15.898 187.05 271.4 0 287.38v101.1c6.832-0.20312 13.578-0.57812 20.09-1.2969v-52.281c0-4.2539 3.0625-7.8906 7.2539-8.6172 23.066-4 44.992-12.109 65.16-24.09 3.3945-2.0195 7.6992-1.5234 10.543 1.2266l39.156 37.746c17.867-12.52 34.062-27.441 48.281-44.484zm-103.83-303.41c-18.988-11.27-39.621-18.898-61.301-22.672-11.367-1.7227-14.297 15.059-3 17.246 24.324 3.5 38.93 12.977 59.832 21.707 8.5312 0.32422 12.137-12.094 4.4727-16.285zm71.199 2.5547c7.9453 8.1992 20.527-3.8516 12.617-12.137-6.6484-6.9141-13.766-13.477-21.148-19.496-3.4219-2.8086-8.4102-2.5977-11.609 0.48047l-42.629 41.109c-8.1914 7.9727 3.875 20.512 12.152 12.59l36.941-35.621c4.7344 4.1562 9.3086 8.5312 13.676 13.074zm4.4375 125.31c5.418 0.0625 9.6875-5.082 8.6016-10.395-4.6211-24.055-14.254-46.48-28.648-66.648-2.793-3.9297-8.2695-4.8398-12.207-2.0391-3.9375 2.8086-4.8477 8.2695-2.0391 12.215 12.922 18.105 21.57 38.219 25.707 59.781 0.80469 4.1914 4.4727 7.1055 8.582 7.1055zm27.73 22.234h28.086c0 3.2305-0.0625 6.4648-0.20312 9.6875h-52.184c-4.0352 0-7.543 2.7578-8.5039 6.6758l-5.1172 20.965c-2.6602 11.086 14.184 15.305 17 4.1562l3.4844-14.289h53.531c4.5586 0 8.3477-3.4922 8.7227-8.0312 0.76172-9.3281 0.97266-18.855 0.57031-28.27-0.19141-4.6797-4.0508-8.3828-8.7422-8.3828h-36.645c-11.488 0.19141-11.516 17.309 0 17.5zm-57.652 135.8c8.2773 7.8906 20.344-4.6445 12.137-12.609l-11.164-10.734 8.8906-12.496c6.5898-9.3555-7.5859-19.453-14.262-10.148-20.336 28.762-20.648 21.594 4.4023 46zm-9.3789 5.0234c-8.25-7.8906-20.359 4.6094-12.152 12.59l26.879 25.918c3.1953 3.0781 8.1914 3.2812 11.609 0.48047 7.3867-6.0195 14.5-12.582 21.148-19.504 3.3438-3.4844 3.2383-9.0195-0.24609-12.371-10.527-8.5586-18.156 8.3281-26.047 13.309l-21.184-20.43zm-45.266-5.1445c-17.16 10.184-35.789 17.078-55.379 20.484-10.387 1.75-8.9609 17.457 1.4883 17.367 22.242-3.3086 43.391-11.391 62.816-22.793 4.1562-2.4688 5.5195-7.8398 3.0625-11.996-2.4688-4.1484-7.8398-5.5195-11.988-3.0625zm10.551 56.387c-10.84 5.0742-22.145 9.293-33.617 12.531-3.7695 1.0664-6.3789 4.5156-6.3789 8.4258v38.508c0.19141 11.488 17.309 11.508 17.5 0v-31.98c10.195-3.1953 20.23-7.0977 29.918-11.637 4.375-2.0469 6.2578-7.2617 4.207-11.637-2.0391-4.3672-7.2617-6.2461-11.637-4.1992zm162.55-128h-41.613c-3.7031 0-7 2.3281-8.2422 5.8086-3.9219 10.988-8.8359 21.734-14.605 31.938-3.3789 5.6172 1.1211 13.223 7.6133 13.055 3.0547 0 6.0195-1.6016 7.6289-4.4453 5.2422-9.2734 9.8281-18.953 13.684-28.867h35.543c11.496-0.19141 11.496-17.309 0-17.5zm-47.348-127.19c0 4.8398 3.9219 8.75 8.75 8.75h40.102c4.8281 0 8.75-3.9102 8.75-8.75s-3.9219-8.75-8.75-8.75h-40.102c-4.8281 0-8.75 3.9102-8.75 8.75zm-15.777-36.32c3.3516 3.4844 8.8984 3.5859 12.371 0.23437l28.234-27.168c3.4844-3.3516 3.5859-8.8984 0.23438-12.371-3.3438-3.4844-8.8906-3.5781-12.371-0.23438l-28.234 27.168c-3.4844 3.3516-3.5859 8.8984-0.23438 12.371zm-133.04-104.51c11.473 3.2305 22.777 7.4531 33.617 12.531 3.2539 1.5312 7.168 0.91016 9.7812-1.6289l29.32-28.262c8.1992-7.9609-3.8672-20.512-12.145-12.59l-25.043 24.141c-10-4.375-20.328-8.0781-30.781-11.035-4.6445-1.2852-9.4766 1.3984-10.797 6.0469-1.3125 4.6445 1.3906 9.4844 6.0469 10.797z"/>
 </g>
</svg>
